<svg xmlns="http://www.w3.org/2000/svg" viewBox="5 20 90 60">
    <path fill="red"
        d="M58.9,26.39C43.64,26.84,25.2,29.14,13,39.3,2.35,48.22,5,61.63,16.87,67.89c13.68,7.23,31.49,6.49,46.26,3.83,10.55-1.9,34.48-7.37,30-23C91,41.27,83.26,37,76.54,34.41c-9.16-3.47-20.45-5.35-30.2-4-1.71.24-1.07,2.62.38,2.78C59.88,34.64,77.19,34,87,44.81,99.75,59,73.33,66.49,63.68,68.42,51,71,36.83,71.66,24.3,67.8c-5.85-1.8-12.33-5-14.81-11S10.16,44.93,14.75,41C26.38,31.15,44.27,28.91,58.9,28.49c1.34,0,1.35-2.14,0-2.1Z" />
</svg>
