<?xml version="1.0" encoding="UTF-8" standalone="no"?>
<svg width="100%" height="100%" viewBox="0 0 100 100"
    xmlns="http://www.w3.org/2000/svg" fill="red">
    <path
        d="M60.361,1.304C43.474,2.233 23.067,6.982 9.565,27.962C-2.221,46.381 0.712,74.072 13.848,86.998C28.987,101.928 48.697,100.4 65.043,94.907C76.718,90.984 103.201,79.688 98.243,47.414C95.885,32.03 87.32,23.213 79.883,17.865C69.746,10.699 57.252,6.817 46.462,9.605C44.569,10.1 45.277,15.015 46.882,15.345C61.446,18.339 80.602,17.018 91.459,39.34C105.569,68.641 76.331,84.107 65.651,88.093C51.619,93.42 35.937,94.783 22.071,86.812C15.597,83.096 8.425,76.488 5.681,64.098C2.936,51.709 6.422,39.588 11.502,31.472C24.373,11.133 44.171,6.507 60.361,5.64C61.844,5.64 61.855,1.221 60.361,1.304Z" />
</svg>
