<?xml version="1.0" encoding="UTF-8" standalone="no"?>
<!DOCTYPE svg PUBLIC "-//W3C//DTD SVG 1.1//EN" "http://www.w3.org/Graphics/SVG/1.1/DTD/svg11.dtd">
<svg width="100%" height="100%" viewBox="0 0 1080 1080" version="1.1"
    xmlns="http://www.w3.org/2000/svg"
    style="fill-rule:evenodd;clip-rule:evenodd;stroke-linecap:round;stroke-linejoin:round;stroke-miterlimit:1.5;">
    <rect x="0" y="0" width="1080" height="1080" style="fill:rgb(110,126,63);" />
    <g transform="matrix(1.0589,0,0,1.0589,-42.5669,-42.013)">
        <path
            d="M163.88,1013.11L40.199,1013.11L40.199,106.847L116.832,106.847L165.972,241.265L130.588,287.078L167.656,416.208L141.284,452.736L212.789,565.835L161.778,591.688L186.132,693.126L235.265,780.25L92.093,984.165L124.392,981.635L163.88,1013.11Z"
            style="fill:rgb(198,198,198);stroke:rgb(71,71,71);stroke-width:2.83px;" />
    </g>
    <g transform="matrix(1.0589,0,0,1.0589,-42.5669,-42.013)">
        <path
            d="M366.17,106.847L802.832,106.847L802.832,116.401L736.311,182.297L824.522,266.035L755.223,491.131L798.802,509.229L799.32,593.101L670.432,645.528L674.214,721.292L764.559,771.562L712.233,861.565L370.341,861.565L350.518,779.693L480.073,713.432L487.457,616.291L413.197,543.292L460.967,318.687L366.17,106.847Z"
            style="fill:rgb(198,198,198);stroke:rgb(71,71,71);stroke-width:2.83px;" />
    </g>
    <g transform="matrix(1.0589,0,0,1.0589,-42.5669,-42.013)">
        <path
            d="M980.3,106.847L1060.12,106.847L1060.12,954.392L783.262,954.392L821.271,904.707L863.355,892.298L893.391,909.38L920.834,909.38L996.93,862.834L1005.92,827.023L1015.59,812.367C1015.59,812.367 930.914,805.926 939.316,741.221C944.406,702.019 996.187,695.867 996.187,695.867L990.105,661.141L963.43,645.33L952.71,549.29L887.532,354.395L940.723,318.078L950.726,318.078L943.912,250.322L975.844,243.195L1001.13,229.631L1013.7,164.291L980.3,106.847Z"
            style="fill:rgb(198,198,198);stroke:rgb(71,71,71);stroke-width:2.83px;" />
    </g>
    <g transform="matrix(1.0589,0,0,1.0589,-42.5669,-42.013)">
        <path d="M674.214,721.292L480.073,713.432L487.457,616.291L670.432,645.528L674.214,721.292Z"
            style="fill:rgb(135,135,135);stroke:rgb(71,71,71);stroke-width:2.83px;" />
    </g>
    <g transform="matrix(1.0589,0,0,1.0589,-42.5669,-42.013)">
        <path
            d="M755.223,491.131L796.767,356.187L584.069,356.187L460.967,318.687L330.31,298.172L165.972,241.265L130.588,287.078L159.849,389.014L171.344,396.369L287.055,418.96L413.197,543.292L458.287,497.133L755.223,491.131Z"
            style="fill:rgb(135,135,135);stroke:rgb(71,71,71);stroke-width:2.83px;" />
    </g>
</svg>
