<?xml version="1.0" encoding="UTF-8" standalone="no"?>
<!DOCTYPE svg PUBLIC "-//W3C//DTD SVG 1.1//EN" "http://www.w3.org/Graphics/SVG/1.1/DTD/svg11.dtd">
<svg width="100%" height="100%" viewBox="0 0 1080 1080" version="1.1" xmlns="http://www.w3.org/2000/svg" xmlns:xlink="http://www.w3.org/1999/xlink" xml:space="preserve" xmlns:serif="http://www.serif.com/" style="fill-rule:evenodd;clip-rule:evenodd;stroke-linecap:round;stroke-linejoin:round;stroke-miterlimit:1.5;">
    <rect x="0" y="0" width="1080" height="1080" style="fill:rgb(110,126,63);"/>
    <g transform="matrix(1.06085,0,0,1.06085,-43.5088,-70.256)">
        <path d="M41.013,988.741L41.013,114.869L75.786,114.869L75.786,137.038L91.558,137.038L90.002,156.152L123.637,156.152L175.479,187.554L117.298,278.967L126.991,322.481L111.152,376.09L148.776,540L122.844,581.359L143.871,664.1L110.322,736.219L134.992,783.522L128.909,822.324L84.044,920.64L138.933,928.239L159.42,988.614L41.013,988.741Z" style="fill:rgb(200,196,201);stroke:rgb(71,71,71);stroke-width:2.83px;"/>
    </g>
    <g transform="matrix(1.06085,0,0,1.06085,-41.3871,-70.256)">
        <path d="M134.815,114.869L150.997,135.196L229.726,135.196L229.726,165.678L407.236,175.757L623.821,138.048L732.998,149.374L810.652,176.051L885.506,179.679L991.174,311.483L920.257,339.546L890.277,384.202L935.596,437.518L894.66,542.578L870.728,554.637L788.73,618.87L794.862,728.562L912.005,755.885L882.895,835.964L981.303,939.28L955.369,968.98L918.017,974.222L853.881,1009.01L853.881,1013.77L1057.07,1035.63L1057.07,114.869L134.815,114.869Z" style="fill:rgb(198,198,198);stroke:rgb(71,71,71);stroke-width:2.83px;"/>
    </g>
    <g transform="matrix(1.06085,0,0,1.06085,-41.3871,-70.256)">
        <path d="M416.832,258.786L589.406,234.734L620.437,241.912L656.538,274.878L656.538,289.002L536.709,587.984L563.543,602.224L564.634,690.88L554.148,738.387L629.879,912.153L345.707,881.493L291.913,665.996L423.267,650.716L395.379,472.623L354.912,360.796L385.707,273.8L416.832,258.786Z" style="fill:rgb(198,198,198);stroke:rgb(71,71,71);stroke-width:2.83px;"/>
    </g>
    <g transform="matrix(1.06085,0,0,1.06085,-41.3871,-70.256)">
        <path d="M354.912,360.796L401.324,352.326L619.836,380.577L583.616,470.947L559.728,438.652L395.379,472.623L354.912,360.796Z" style="fill:rgb(135,135,135);stroke:rgb(71,71,71);stroke-width:2.83px;"/>
    </g>
</svg>
